<?xml version="1.0" encoding="UTF-8" standalone="no"?>
<!-- Generator: Adobe Illustrator 13.0.0, SVG Export Plug-In . SVG Version: 6.00 Build 14948)  -->

<svg
   xmlns:dc="http://purl.org/dc/elements/1.1/"
   xmlns:cc="http://creativecommons.org/ns#"
   xmlns:rdf="http://www.w3.org/1999/02/22-rdf-syntax-ns#"
   xmlns:svg="http://www.w3.org/2000/svg"
   xmlns="http://www.w3.org/2000/svg"
   xmlns:sodipodi="http://sodipodi.sourceforge.net/DTD/sodipodi-0.dtd"
   xmlns:inkscape="http://www.inkscape.org/namespaces/inkscape"
   version="1.0"
   id="Layer_1"
   x="0px"
   y="0px"
   width="1000"
   height="427.952"
   viewBox="0 0 1000 427.952"
   enable-background="new 0 0 693.615 419.375"
   xml:space="preserve"
   inkscape:version="0.91 r13725"
   sodipodi:docname="Star_Wars_Yellow.svg"><metadata
   id="metadata35"><rdf:RDF><cc:Work
       rdf:about=""><dc:format>image/svg+xml</dc:format><dc:type
         rdf:resource="http://purl.org/dc/dcmitype/StillImage" /><dc:title></dc:title></cc:Work></rdf:RDF></metadata><defs
   id="defs33">
	
	
	
	
	
	

		
	
		
	
		
	
		
	
		
	
		
	</defs><sodipodi:namedview
   pagecolor="#ffffff"
   bordercolor="#666666"
   borderopacity="1"
   objecttolerance="10"
   gridtolerance="10"
   guidetolerance="10"
   inkscape:pageopacity="0"
   inkscape:pageshadow="2"
   inkscape:window-width="1366"
   inkscape:window-height="705"
   id="namedview31"
   showgrid="false"
   fit-margin-top="0"
   fit-margin-left="0"
   fit-margin-right="0"
   fit-margin-bottom="0"
   inkscape:zoom="0.56274216"
   inkscape:cx="316.13148"
   inkscape:cy="99.020608"
   inkscape:window-x="-8"
   inkscape:window-y="-8"
   inkscape:window-maximized="1"
   inkscape:current-layer="Layer_1" />

<path
   d="m 187.36674,232.28221 13.67284,40.15272 c 7.39784,21.71253 14.00244,39.07719 14.86349,39.07719 0.0142,0 0.0268,-0.006 0.0378,-0.0158 0.94622,-0.83583 27.70839,-78.55336 27.70839,-78.55336 l 51.86847,0 -62.57649,182.33444 -36.05087,0 c 0,0 -38.47949,-111.13477 -38.32179,-111.55741 l -40.16691,110.15701 -35.688157,0 -61.787973,-181.59482 51.61614,0.0331 c 0,0 28.27454,80.14616 28.65145,80.14616 0.002,0 0.002,-0.002 0.003,-0.003 l 28.21303,-80.1777 57.95737,0 M 3.3038749,219.65495 l 5.6788793,16.69127 61.7879728,181.59324 2.909617,8.5538 9.034796,0 35.68815,0 8.82821,0 3.02474,-8.29517 27.88975,-76.48588 c 2.40339,6.99255 5.00075,14.52916 7.59812,22.05948 9.60252,27.84243 19.22555,55.63283 19.22555,55.63283 l 2.93958,8.48914 8.98276,0 36.05087,0 9.00798,0 2.92381,-8.52068 62.57649,-182.33287 5.73565,-16.71335 -17.66902,0 -51.86847,0 -8.99852,0 -2.93012,8.50965 c -4.69008,13.61764 -10.91462,31.58945 -16.23709,46.79989 -0.8027,-2.30719 -1.63853,-4.73266 -2.50274,-7.27168 l -13.67126,-40.15114 -2.91119,-8.54907 -9.03165,0 -57.95579,0 -8.93544,0 -2.96639,8.42922 -16.48468,46.8472 C 95.578961,259.63419 89.266116,241.79643 84.440409,228.11728 l -2.967967,-8.41187 -8.92125,-0.006 -51.61614,-0.0331 -17.6311771,-0.011 0,0 z"
   id="path9"
   inkscape:connector-curvature="0"
   style="fill:#ffe81f" /><path
   d="m 986.19471,231.57413 -0.11828,47.79184 c 0,0 -51.47893,-0.17189 -77.6513,-0.17189 -8.70677,0 -14.61274,0.0205 -14.89345,0.071 -4.51031,0.82163 -7.38207,10.41154 -6.1031,14.62063 0.62923,2.12899 5.3477,9.08369 10.45569,15.47065 5.09223,6.38854 13.46783,16.84424 18.5774,23.22805 13.1193,16.37113 14.91869,19.60246 16.13142,29.00313 1.97129,15.26721 -5.24993,31.79289 -18.65467,42.69016 -13.43312,10.92881 -12.84489,11.00608 -112.57302,11.00608 -1.44455,0 -2.89384,0 -4.3794,0 -60.65252,-0.0158 -92.72927,-0.51884 -97.39885,-1.55968 -8.29517,-1.87666 -21.51067,-12.66354 -56.44185,-46.17539 -12.56419,-12.04219 -24.14273,-22.5862 -24.73727,-22.58936 -0.0158,0 -0.0237,0.009 -0.0237,0.0252 l -0.41161,70.30234 -56.61374,-0.25074 -0.34852,-181.32673 71.39365,0 54.86482,0 c 38.05369,1.3736 63.80657,39.28378 58.68122,63.45962 -1.167,5.48649 -4.13181,13.43786 -6.59355,17.66272 -5.06226,8.67366 -17.94659,19.80748 -28.40386,24.58745 -3.86214,1.74735 -7.0162,3.78172 -7.0162,4.50715 0,2.69672 12.71243,15.21675 17.47347,17.20538 4.06716,1.70161 15.91222,2.0801 68.1434,2.0801 6.12203,0 11.68263,0.003 16.72912,0.003 52.50401,0 49.86248,-0.37848 53.9186,-9.05372 2.84023,-6.04001 0.6797,-9.65141 -19.30125,-32.1556 -25.31288,-25.18673 -22.6619,-37.25099 -22.83537,-46.1612 -0.36114,-10.67649 8.046,-44.26561 51.74545,-44.26561 l 116.3847,-0.005 m -339.1715,83.77174 c 24.23893,0 29.15926,-0.37691 34.31772,-2.61786 17.41039,-7.56974 18.34084,-29.93043 1.64011,-39.85309 -3.65713,-2.17787 -8.35825,-2.53744 -34.63155,-2.68095 l -30.40353,-0.15928 c 0.25075,0.23656 -0.0962,43.47868 -0.0962,43.47868 0,0 7.61547,1.8325 29.17345,1.8325 m 351.81769,-96.38797 -12.64934,0 -116.3847,0 c -25.28292,0 -40.23788,9.97944 -48.32961,18.35188 -13.16346,13.61449 -16.2639,30.75836 -16.02576,38.84063 0.0126,0.67339 0.005,1.36413 -0.003,2.08483 -0.11512,13.13507 1.81989,28.00487 26.27172,52.42989 4.83359,5.4439 12.92059,14.57016 15.97687,19.1057 -6.68344,0.82163 -23.62388,0.82163 -41.41592,0.82163 l -7.55712,0 -9.17199,-0.003 c -31.38918,0 -57.85802,-0.0899 -63.283,-1.16069 -0.75855,-0.49519 -1.82305,-1.34678 -2.9932,-2.36239 10.84522,-6.67871 21.8103,-17.03033 26.97349,-25.88219 3.13356,-5.38239 6.58883,-14.57647 8.03969,-21.39712 3.21714,-15.1789 -2.08956,-33.48977 -14.19483,-48.99511 -14.12397,-18.09014 -34.67108,-28.91328 -56.37257,-29.69549 l -0.22866,-0.01 -0.22867,0 -54.86482,0 -71.39365,0 -12.64146,0 0.0252,12.64304 0.34852,181.32514 0.0252,12.5358 12.5358,0.0552 56.61375,0.25074 12.5973,0.0552 0.0741,-12.5973 0.24444,-42.11612 c 1.15596,1.09761 2.35135,2.2378 3.57828,3.41426 38.20666,36.65014 51.03106,46.80463 62.39039,49.37361 3.12094,0.69547 8.28413,1.84828 100.17758,1.87351 l 4.38256,0 c 49.74894,0 74.71961,0 89.57364,-1.4351 17.01456,-1.64484 22.48684,-5.50383 30.69055,-12.18254 l 0.27282,-0.22236 c 16.85055,-13.69965 25.74184,-34.42653 23.20597,-54.09208 -1.65272,-12.7897 -5.03702,-18.10271 -18.80133,-35.27497 l -4.09081,-5.10957 c -4.79417,-5.99113 -10.58659,-13.22654 -14.46924,-18.0964 -3.13197,-3.91734 -5.59214,-7.39469 -7.07612,-9.67192 1.94921,-0.005 4.48034,-0.008 7.75582,-0.008 25.85538,0 77.09619,0.17032 77.6103,0.17347 l 12.62885,0.041 0.0315,-12.62884 0.11827,-47.79342 0.0331,-12.64146 0,0 z m -368.29601,83.31137 c 0.0205,-3.18717 0.0394,-6.76072 0.0599,-10.34057 0.0158,-3.15406 0.03,-6.31442 0.0347,-9.20985 l 17.64222,0.0915 c 10.13872,0.0552 25.39489,0.13878 28.36916,0.98249 3.79591,2.30404 5.91386,5.86655 5.68362,9.55679 -0.12617,1.99337 -1.07554,5.65838 -6.02583,7.80787 -2.7598,1.19854 -7.15971,1.5723 -29.28542,1.5723 -7.01777,0 -12.43171,-0.20344 -16.47837,-0.4605 l 0,0 z"
   id="path13"
   inkscape:connector-curvature="0"
   style="fill:#ffe81f" /><path
   d="m 446.29904,230.83135 63.53847,182.80913 -51.77384,0.23655 -8.59481,-27.45606 -92.57156,-0.74278 -8.16901,27.48918 -51.25342,-0.53777 62.73419,-181.7194 86.08998,-0.0789 m -41.63513,26.80317 c -0.13089,0.52515 -8.11223,22.42377 -16.12038,44.32081 -8.07439,22.07839 -16.17558,44.15679 -16.28755,44.32869 0,0.002 -0.002,0.002 0,0.002 l 0,0 c 0,0 0,0 0,-0.002 0.21447,-0.0631 28.88485,-0.12616 47.26038,-0.12616 8.59954,0 14.94235,0.0142 15.06063,0.0457 0.002,0.006 0.002,0.008 0.002,0.008 0,0 0,-0.002 0,-0.005 0,0 0,0 -0.002,-0.003 -0.32172,-0.83425 -29.82003,-87.503 -29.91308,-88.56907 0.002,-0.006 0.002,-0.009 0.002,-0.009 l 0,0 c -0.002,0 -0.002,0.003 -0.002,0.009 m 50.60369,-39.42728 -8.97802,0.008 -86.08998,0.0804 -8.98276,0.008 -2.93169,8.49387 -62.73419,181.7194 -5.71358,16.54934 17.50817,0.18136 51.25342,0.53776 9.51422,0.0994 2.71091,-9.11838 5.46598,-18.39131 73.89009,0.59139 5.84762,18.68463 2.78345,8.89129 9.31551,-0.041 51.77227,-0.23655 17.65483,-0.082 -5.79716,-16.67549 -63.53847,-182.80913 -2.95062,-8.49072 0,0 z m -64.85214,115.34703 c 2.3892,-6.51155 5.60791,-15.31294 9.97786,-27.26524 1.37044,-3.74702 2.62417,-7.17706 3.77383,-10.32165 1.04557,3.08467 2.18418,6.44058 3.42057,10.08983 1.01876,3.00581 5.49595,16.19608 9.33601,27.48445 -11.41769,0 -20.01249,0.002 -26.50827,0.0126 l 0,0 z"
   id="path17"
   inkscape:connector-curvature="0"
   style="fill:#ffe81f" /><path
   d="m 467.71508,12.635277 0,45.103015 -90.33218,0 0,137.942668 -53.85552,0 0,-138.05306 -105.44012,0.299635 c -12.71085,0 -14.41404,10.124523 -14.41404,14.004013 0,4.762625 3.10674,9.525251 20.17019,31.130532 11.07074,14.03556 21.24257,28.03957 22.58305,31.099 7.31741,16.84267 -2.14476,43.08442 -19.38168,53.74513 -12.28505,7.59024 -10.18603,7.77633 -101.41554,7.77633 -4.69009,0 -9.61357,0 -14.81145,0 l -98.201562,0 0,-50.66992 154.391082,0 4.55761,-3.16983 c 3.07521,-2.14476 4.85725,-5.0938 5.53537,-9.131 0.94622,-5.80346 0.45734,-6.56043 -18.60894,-28.03956 -22.53573,-25.390153 -24.91704,-30.026617 -23.75004,-46.238468 1.3247,-18.498545 17.82042,-45.371105 46.6485,-45.371105 l 286.32527,-0.42738 M 480.33131,1.2683594e-4 467.69458,0.01902684 l -286.32527,0.42579 c -16.49257,0 -31.81024,7.12502006 -43.11911,20.06296016 -9.16885,10.49039 -15.18679,24.33197 -16.09516,37.023894 -1.53445,21.307231 3.37011,29.006284 26.8978,55.514549 6.82853,7.69117 13.32116,15.007 15.488,18.11375 -0.0347,0.12458 -0.0662,0.20501 -0.0852,0.25075 -0.0237,0.0189 -0.0599,0.0473 -0.1104,0.082 l -1.29631,0.90206 -150.432742,0 -12.6162276128,0 0,12.61622 0,50.66993 0,12.61622 12.6162276128,0 98.201562,0 7.78579,0 7.02566,0 c 44.98,0 67.18141,-0.0426 80.26128,-1.00141 14.966,-1.09603 19.74124,-3.66344 26.89464,-8.10593 l 0.8926,-0.55353 c 22.49158,-13.91097 34.08274,-47.03803 24.32093,-69.50595 -3.01212,-6.87269 -22.08313,-31.14 -24.24839,-33.88403 -5.9864,-7.580775 -15.86806,-20.091341 -17.43247,-23.712199 0.0379,-0.304366 0.11197,-0.619772 0.19082,-0.838979 0.26021,-0.06624 0.75855,-0.154548 1.57861,-0.154548 l 92.82389,-0.263364 0,125.40056 0,12.61623 12.61623,0 53.85552,0 12.61622,0 0,-12.61623 0,-125.32644 77.71596,0 12.61623,0 0,-12.616227 0,-45.103006 0,-12.632000164059 0,0 z"
   id="path21"
   inkscape:connector-curvature="0"
   style="fill:#ffe81f" /><path
   d="m 614.47335,14.100337 63.365,183.282243 -51.67922,-0.28387 -8.38979,-27.45606 -92.15997,-0.41003 -8.23366,26.44676 -52.62386,0 62.66953,-181.579043 87.05197,0 m -73.82228,116.102403 62.76731,-0.0789 c 0.002,0 0.002,0.002 0.002,0.002 0.21448,0 -30.50288,-90.207603 -30.70789,-90.270683 l 0,0 c -0.22394,-0.008 -32.76908,90.347963 -32.06099,90.347963 m 82.80976,-128.7186431 -8.98748,0 -87.05197,0 -8.99064,0 -2.93327,8.50019 -62.67111,181.5806231 -5.77508,16.73227 17.70214,0 52.62544,0 9.28712,0 2.7598,-8.86763 5.4581,-17.53813 73.53999,0.32644 5.67572,18.56794 2.71407,8.87709 9.28396,0.052 51.67922,0.28386 17.81569,0.0978 -5.82081,-16.83635 -63.365,-183.2822331 -2.94589,-8.49388 0,0 z M 558.17859,117.56446 c 3.89211,-11.08178 9.31078,-26.268557 14.21534,-39.917737 4.64908,13.631833 9.79177,28.772877 13.54352,39.883047 l -27.75886,0.0347 0,0 z"
   id="path25"
   inkscape:connector-curvature="0"
   style="fill:#ffe81f" /><path
   d="m 792.43785,14.100337 c 40.87815,0 69.24731,0.5835 74.70383,1.52972 12.61623,2.19207 24.01814,8.92598 32.56564,19.27129 8.94175,10.81841 10.99189,15.99106 12.15889,30.815132 1.67322,20.927167 -8.2794,38.984141 -27.9134,50.701461 -5.72462,3.42215 -11.60536,6.74968 -13.07357,7.41203 -2.25515,1.02507 -1.95394,2.00283 2.08168,6.73391 2.60052,3.04367 7.1124,7.38049 10.01413,9.63565 l 5.29881,4.11604 97.90193,1.40355 0.96041,49.96026 -60.02328,0 c -46.42614,0 -61.28333,-0.42579 -65.63592,-1.89243 -6.51313,-2.20784 -22.18722,-15.48642 -54.04634,-45.7969 l -22.74075,-21.63683 0.2397,69.32616 -58.41786,0 0,-181.579043 65.9261,0 m -8.60742,81.642762 31.02172,0 c 30.1859,0 31.12897,-0.09462 35.43583,-3.32753 7.69748,-5.771923 10.42258,-11.717321 9.60568,-20.848315 -0.83583,-9.41486 -4.46299,-14.319418 -13.56402,-18.261987 -5.12534,-2.23938 -10.06302,-2.6021 -34.25464,-2.6021 l -28.24457,0 0,45.039932 m 8.60742,-94.2589921 -65.91979,0 -12.61623,0 0,12.6162301 0,181.579043 0,12.61623 12.61623,0 58.41786,0 12.66039,0 -0.0442,-12.66038 -0.13878,-39.76635 1.32471,1.26005 c 39.40367,37.49069 51.02637,46.00664 58.69388,48.60559 5.88705,1.98548 15.7419,2.56109 69.68573,2.56109 l 60.02328,0 12.85907,0 -0.246,-12.85909 -0.96041,-49.96026 -0.2334,-12.19674 -12.19674,-0.17505 -93.67864,-1.34205 -1.9634,-1.52498 c -0.6245,-0.4873 -1.38148,-1.13073 -2.19049,-1.85932 0.70335,-0.41633 1.34678,-0.79955 1.90347,-1.13073 23.66016,-14.11913 36.06033,-36.913498 34.01493,-62.533901 C 923.08834,47.430837 920.0021,39.645047 909.43601,26.864807 899.05285,14.297467 884.80125,5.8934869 869.30537,3.2014969 c -8.61058,-1.49345 -51.85428,-1.71739 -76.86752,-1.71739 l 0,0 z m 4.0088,61.8352891 15.62835,0 c 22.12098,0 26.50354,0.367447 29.20342,1.547064 5.12534,2.220456 5.64576,3.297567 6.0479,7.81733 0.40372,4.491377 -0.15297,6.298652 -4.60808,9.638798 -0.14666,0.108815 -0.25863,0.193974 -0.35167,0.261786 -2.94116,0.544075 -13.85578,0.544075 -27.51442,0.544075 l -18.40392,0 -0.002,-19.809053 0,0 z"
   id="path29"
   inkscape:connector-curvature="0"
   style="fill:#ffe81f" />
</svg>